<?xml version="1.0" encoding="UTF-8"?>
<svg id="Layer_1" xmlns="http://www.w3.org/2000/svg" version="1.1" viewBox="0 0 2160 2160">
  <!-- Generator: Adobe Illustrator 29.0.0, SVG Export Plug-In . SVG Version: 2.1.0 Build 186)  -->
  <path d="M782.54,1582.25c-.75-.94-4.57,2.42-4.66,2.67-.8,2.2,4.25,3.95-6.42,4.73-.61,1.8,4.82.93,2.44,3.68-.08.1-1.8-1-2.49-.53-.91.62-.75,2.59-2.02,2.99-1.84.58-15.11-2.81-17.85-3.86-1.13-.43-1.21-1.82-1.99-2.2-2.49-1.2-6.79-.13-6.45-3.78-3,.16-1.01,3.54-1.21,3.67-2.67,1.74-2.52-2.42-2.99-2.4-1.34.08-11.82,5.48-8.08-.04l-6.15,1.23c.02-4.65-.55-4.88-4.33-7.39-2.98,6.34-6.96-1.25-7.49-1.31-2.3-.26-9.04,4.7-10.37,3.76,3.35-4.51-3.4-.98-4.91-4.3l2.45-3.07-4.9,2.45c-.64-3.81-4.7-2.91-3.76-7.9.06-.32,7.11-3.01.05-2.57-.9-2.32,1.83-1.75,2.07-2.12,3.59-5.72-7.65-2.26-9.41-4.75-.35-.49,1.84-10.19-4.98-8.51l1.25-2.44-7.39,1.84c6.07-.05,2.87,6.16,4.94,11.06-.11,3.12-10.2-4.02-10.76-4.62-1.16-1.24-.98-3.52-1.76-4.32-.3-.31-8.01-.36-5.68-4.59.35-.63,4.3-.98,2.17-3.07-.29-.29-3,2.23-7.81-.18-9.08-4.55-9.24-11.8-13.53-16.7-1.55-1.77-14.31-7.9-15.56-9.02-.41-.37,1.08-2.65.6-3.71-.75-1.66-4-1.79-4.73-3.94-.59-1.71.73-4.11.41-4.61-.06-.1-1.43.74-2.42.34-5.44-2.16-2.33-2.88-3.42-4.87-3.22-5.92-3.17-4.71-7.09-7.72-5.02-3.86-1.57-5.72-2.09-7.26-.09-.27-3.21-1-4.03-3.96-.5-1.78.72-3.48.58-3.59-.26-.21-2.21.34-3.29-.33-2.46-1.54-1.63-5.47-1.88-5.65-1.47-1.06-8.97-4.63-9.62-5.13-.11-.09,1.15-1.62.9-2.18-.16-.38-4.76-4.17-5.87-5.84-.2-.31-2.23-3.72-2.35-3.94-2.25-4.27-4.83-7.1-1.28-11.41l-3.71-.02,1.24-3.67-7.38-.02c-.49-2.24,2.08-.78,2.46-1.23.28-.33-4.97-6.16,0-6.75-3.56-3.14-3.18-7.5-2.47-11.7-6.92,4.98-3.37-8.99-5.13-10.89-.39-.42-2.37-.18-3.32-.95s-1.14-2.09-1.83-2.57c-1.05-.74-2.92-.16-3.23-.41-.34-.29,1.28-3.8.1-5.37-.86-1.14-2.69-.35-3.44-1.04-2.01-1.83-.74-7.9-4.06-7.11-.55-1.99,1.71-.87,2.07-1.43,1.55-2.44-2.02-3.95-2.04-4.22-.12-1.3,1.33-2.6.39-5.1-.56-1.48-2.83-1.47-2.95-2.34-.48-3.45,3.16-4.98-1.17-5.96l3.68-3.07c-2.67.09-4.58-1-6.14-3.1,4.55-1.11.98-2.74,1.42-5.89.23-1.63,2.52-3.55,2.2-5.06-.61-2.83-7.91-1.81-6.09-6.89l-1.83,2.45-3.08-3.08,2.45-1.82c-5.5-.1-11.7-15.89-4.91-16.04-5.58-3.97-2.53-2.85-2.65-6.89-.17-5.62,1.54-13.56,1.14-17.08-.45-3.97-5-13.56-4.43-16.05.21-.93,2.11-.41,2.24-.59.52-.76-2.1-1.97-2.09-3.03,0-.87,2.28-1.97,1.96-4.65-.21-1.75-2.53-4.81-3.55-6.49,4.41-1.16.97-1.01.59-5.13-.31-3.32,2.34-6.32,2.59-8.97.29-3.07.76-14.28.27-16.69-.86-4.26-4.07-6.21-4.74-10.4-7.71,2.74-17.18.85-24.7,1.89-1.81.25-3.92,2.5-6.7,2.94-3.3.53-7.03-.19-10.4.08l1.25,2.44c-8.95-.68-17.34,1.83-26.49,2.44-7.72.51-19.2,2.35-28.4,2.4-.7,0-.24-2.61-1.1-2.37-30.52,8.49-69,3.26-102.36,8.35-15.77,2.41-34,9.69-50.37,6.46-2.93-.58-2.41-2.85-3.35-3.43-1.13-.7-2.97.06-4.25-.64-6.07-3.3-9.86-18.32-13.74-21.29-2.18-1.67-12.22-5.3-13.43-6.97-.77-1.06-.69-5.21-1.61-7.41-1.05-2.52-6.03-8.22-8.12-11.23-.74-1.06-.2-2.95-.42-3.24-.3-.4-6.39,2.96-7.92-3.68-.48-2.07,2.11-3.57.55-7.92-1.3-3.63-8.3-8.66-2.46-11.17l-2.46-3.07,2.46-.62c-5.34-4.73,1.12-5.86.9-10.08-.12-2.37-2.75-4.78-2.77-8.43-.01-1.67,2.86-15.06,3.46-16.26.31-.63,4.73-3.58,5.74-4.97,14.07-19.24,21.46-34.23,33.24-53.87,2.4-4,8.56-10.42,9.96-13.42,1.21-2.58-.07-4.74.27-5.35,1.48-2.64,8.62-12.04,9.24-14.74.54-2.35-1.41-4.41.51-8.03,1.41-2.65,3.51-2.62,4.32-3.72,1.77-2.44,18.6-34.8,19.24-36.87.38-1.23,1.7-9.1,2.11-9.45.39-.33,2.51-.08,3.67-.73s.09-2.45,1.2-3.6c1.29-1.33,6.89-4.15,7.16-4.63,1-1.76-1.25-7.53-.45-10.19,1-3.3,5.47-7.19,5.57-7.67,1.03-4.94,1.96-8.05,4.16-12.36s.51-3.18,1.09-5.06c.06-.19,1.48-.15,1.63-.46.39-.83-.63-2.13.47-2.78,1.2-.7,3.42-.42,3.75-.69.12-.1-1.23-1.74-.96-2.17.31-.48,2.28-.65,3.23-2.29,2.4-4.16.44-12.89,5.76-18.87,1.44-1.62,3.61-.78,5.1-1.69,4.3-2.63,1.39-3.75,1.53-6.2.04-.68,5.95-1.65.12-1.97v-1.21c5.73-.31.07-1.27-.08-1.98-1.12-5.07,5.24-8.46,6.8-11.63,1.25-2.55.52-5.07,2.79-8.32,1.22-1.75,3.75-2.71,3.87-2.92.85-1.57-1.16-3.51-.83-4.52.39-1.18,9.78-5.82,10.85-8.2l-3.68-1.22c3.93-2.41,2.47-6.48,3.73-9.49,3.46-8.29,11.92-17.52,15.83-25.34,2.5-5,3.36-10.22,6.33-15.38.53-.92,2.47-.78,2.45-1.6-.02-1.12-1.77-3.11-1.12-4.01,1.75-2.41,3.97-3.7,6.24-8.03,4.54-8.63,10.55-23.78,15.86-31.96,1.96-3.01,5.68-4.29,6.58-5.76.85-1.38-2.87-3.24,4.4-2.48.03-1.82-3.82-1.7-3.4-4.32.19-1.2,2.83-2.19,3.12-3.81.26-1.45-1.35-2.9-.35-5.31s4.76-6.18,6.38-8.47c2.73-3.87,1.9-8.21,6.57-5.17-2.99-5.6,4.2-3.44,1.23-7.37l6.16-.02c.27-2.59-3.62-.33-4.75-1.39-.39-.36-.41-3.58-1.41-4.75,5.42,1.78,3.02-5.33,4.51-8.63,1.62-3.59,6.2-5.66,6.58-6.18.55-.75-2.42-2.49-2.42-3.05,0-1.12,3.72-2.49,4.47-3.49,2.67-3.53,3.48-9.81,4.37-11.58,1.17-2.32,7.82-9.39,9.31-12.23,2.69-5.17,1.32-13.38,7.65-12.72.61-2.1-2.77-.64-2.46-1.82,1.06-4.03,3.6-2.53,4.72-3.24.41-.26,1.27-7.38,2.21-9.57,6.48-15.13,17.21-26.41,22.62-40.13,4.59-11.65,4.51-11.34,10.91-21.14,5.92-9.08,20.22-35.33,26.41-41.91,1.5-1.59,4.65-2.03,6.3-4.17,3.44-4.47,1.1-11.86,8.05-12.91,3.38-.52,5.31,1.73,8.15,1.89,1.59.09,5.08-1.56,5.43-1.18.16.17-.34,2.14.41,3.22,4.66,6.76,20.27,15.05,24.24,20.77,2.8,4.04,3.38,13.68,8.95,18.74.48.44,9.38,6.22,10.78,7.06,2.76,1.65,6.33-1.06,3.62,3.12,7.42-3.64,7.36,3.35,12.92,7.41,4.47,3.26,5.85,2.16,9.18,7.04.9,1.32,5.96,9.17,6.12,9.73.11.38.58,7.19.54,7.88-.03.44-3.06,7.68-3.39,8.25-3.05,5.24-9.7,12.06-12.92,17.35-4.78,7.86-8.51,19.07-13.35,25.79-1.59,2.21-3.83,2.61-3.96,2.81-1.15,1.65,2.88,4.14,2.4,4.83-.08.11-1.64-.3-2.53.88-.59.79-.79,5.14-1.98,7.44-2.53,4.89-1.02,2.94-2.54,7.3-.28.79-8.09,11.41-8.88,12.16-3.63,3.49-5.94,1.53-6.15,1.8-1.72,2.27,2.07,6.24-4.21,10.68-2.15,1.52-5.06-1.51-2.02,5.29l-4.92.02c4.73,6.29.76,6.14-.86,8.9-.98,1.67-2.13,8.38-3.31,10.42-1.01,1.76-4.75,4.89-5.47,6.15-1.49,2.59.03,5.16-.2,5.28-3.67,1.89-7.04-3.32-7.99-3.4-2.24-.2-6.59,6.62-10.47,3.42,2.33,4.6-.58,3.42-.79,3.97-.24.63.6,1.3.33,1.89-.16.36-2.05.4-2.03.88.18,3.79,4.69,2.9,4.95,3.11s-1.99,4.09-1.24,4.9c.26.29,4.12-.18,4.9,1.86-3.45,2.45-4.28,1.05-2.44,5.53l-8.61,1.26c-.61,2.11,2.72.62,2.44,1.79-.5,2.08-3.43,11.45-4.38,11.63-1.14.22-3.39-1.56-4.22-1.11-.22.12.84,1.74.5,2.46-1.57,3.33-4.82,1.14-6.12,2.3-1.99,1.79-1.43,6.43-5.46,6.34.97,3.54,4.02.9,6.44,1.4,13.71,2.88-.07,10.18-.89,12.05-.48,1.09.99,3.36.6,3.72-.25.23-2.16-.29-3.22.44-1.35.92-2.2,3.57-5.33,3.95-1.93.24-3.81-2.92-7.96-1.77-2.21.61-.04,6.03-5.64,4.82l4.91,2.46-3.68,3.66,3.69,2.47c-6.27.27-1.95,6.43-6.78,4.97-1.03-.31.16-3.05-1.82-2.49,3.21,7.11-4.45,8.93-4.93,9.87-.3.59,1.55,1.71,1.87,3.07.18.78-1.01,2.71-.63,3.03.81.67,4.48-1.35,4.91,4.95-2.94-1.58-11.12-3.97-12.12.86-1.39,6.75,4.31,6.17,5.15,8.06.62,1.38.13,9.67-.44,11.02-1.53,3.61-8.13,2.22-8.6,4.08,3.6.87,1.19,2.21,1.57,2.84.31.51,1.94.06,2.09.25,1.84,2.27-4.55,3.14-6.14,5.5.25,2.17,3.74,3.43,3.69,3.68-.97,4.56-7.6,9.31-12.3,8.04-.48.42,2.28,8.63.06,10.52l-7.46-.69,1.24-4.88c-5.64-2.44-4.48,1.32-6.61,4.51-.82,1.22-4.78-.22,1.69,3.47-6.5,1.88-6.26,4.18-1.86,9.14,6.31-2,4.07-9.49,11.71-8.52.25,2.11-2.95,1.09-3.59,3.24-.59,1.97,3,4.96-2.56,5.39-.72,1.47,5.29,1.48,2.45,3.66-.57.44-4.7-.3-6.14.02l4.91,2.43c-2.75-.08-3.83,3.48-5.38,4.51-1.09.72-3.05.28-3.23.45-.15.14,1.5,2.25.67,3.67-.59,1.01-4.81,2.33-5.06,5.57-.05.61,2.08,3.99,1.78,4.94-.34,1.1-2.32-.03-2.33,1.19,0,.76,6.17.63-1.21,3.09l2.45,2.43c-4.75-.76-3.89.88-3.7,4.95l-2.44-1.25c2.1,4.44-.12,3.17-.67,4.24-1.38,2.7-3.71,7.76-6.72,8.1v1.19c6.94,1.47.1,5.22-.94,7.04-2.82,4.92-.07,7.47-7.68,7.74v-7.37c-5.93-1.14-6.04,2.83-8.63,6.79,3.94-.04.92,6.36,1.35,6.62.47.28,1.89-.16,2.51.27,1.78,1.24.53,2.85,3.52,1.08l-3.68,5.55c6.3,3.75,1.12,5.75-4.29,3.07-2.28.81-.45,3.56-.63,3.68-.42.28-7.68-.87-9.85,1.26l2.46,6.13c-6.67-2.57-2.18.04-2.72,2.94-.28,1.53-2.48,2.3-2.91,3.23-.58,1.26,1.5,2.17,1.49,3.05-.02,1.66-5.21,4.22,1.67,5.58l-3.7,1.83,3.7,3.06c-9.39.28-9.92,4.34-7.39,12.31l-6.15-1.22c-1.73,6.04-.2,4.6,2.75,6.2,4.17,2.26-2.63,5.03-3.3,6.08-.95,1.48-3.75,13.91-4.37,16.39-.36,1.43-2.93,1.17-3.45,2.83-.58,1.84,1.13,6.43-.97,10.32-.75,1.39-6.15,6.41-7.89,3.73-.96,2.1,3.01,4.15,2.44,4.9-.08.1-1.95-.45-2.4.9-.7,2.05-.88,11.02-1.28,11.43-.59.6-4.32-.88-4.9.6.72,12.17,19.38,14.9,27.69,9.26.97,3.99,2.29,1,5.38,1.56,8.16,1.46,11.9,1.97,20.49.63.58-.09.43-2.1,1.38-2.22,4.41-.56,12.21,2,17.09.98.62-.13.4-2.05,1.33-2.14,2.4-.25,5.76,1.79,9.1-1.28l.02,3.72c5.17-2.62,10.64-.87,16.01,0l.58,2.44c4.8-1.8,13.65-7.06,18.76-8.43,3.23-.87,5.4,1.77,8.37,1.84,3.18.08,10.11-4.19,14.13-3.26-.87-1.48-4.94-2.93-.57-3.68,3.75-.65,5.69,5.77,6.7,4.91,1.09-3.81,7.03-5.9.03-7.39,4.84-7.06,4.66-1.74,5.5-1.44s4.43-.59,5.57-1l-4.91,3.07,4.92,1.87c.65,5.47-4.69-1.94-3.69,3.67,5.48-1.31,2.19,2.41,4.91,3.69-.56-5.15,3.44.45,6.86-2.34,3.19-2.59.37-5.63.79-6.12.14-.16,6.17-2.33.86-2.06-2.54.13-7.09,1.71-8.49-1.77,4.41-.56,8.22-1.02,12.3,1.23v-3.71c3.85-.68,2.43,4.25,6.77,4.43s7.7-5.14,12.25-4.48c2.64.38,3.74,3.09,5.96,4.04,1.61.69,3.78-.22,5.48.52s1.48,2.91,2.26,2.9c1.05,0,2.48-1.19,3.71-1.14,2.02.07,4.48,1.37,5.87,1.01,2.76-.72,5.05-10.35,5.87-10.9.55-.37,2.47,1.2,3.59.55.73-.43,2.02-4.35,5.57-4.25,1.21,1.01-.31,2.91,1.75,2.4-.97-3,7.14-3.98,9.07-3.73.69.09,1.1,4.1,4.48,2.5l-2.45-2.44c8.19-2.25,6.45,5.93,12.94,8.33,2.07-3.27,9.48-5.42,6.74-8.34l9.85,2.46-2.45,2.44c5.38,1.51,3.32-3.11,5.2-4.63,1.06-.86,3.63-.53,5.02-1.43,1.21-.78,1.56-3.48,2.64-3.57.89-.08,2.78,1.62,4.16,1.61,8.21-.02,10.69-4.51,16.74-6.15,5.83-1.58,16.57.25,23.35-.72,5.53-.79,12.55-4.52,17.48-4.68,5.3-.17,22.16,5.86,25.13,3.57-2.54-3.56,2.88-1.09,0-6.13,4.83,2.25,8.47-.95,11.62-1.09,2.8-.13,13.54,2.08,16.2,3.44s2.7,3.14,3.86,3.82c3.92,2.3,7.44,3.04,11.01,4.9,6.81,3.53,5.5-.04,7.84-1.71,5-3.55,14.67-5.84,20.03-2.07,1.43,1.01,2.69,7.77,5.77,9.25,3.46,1.66,8.86-.67,11.6,4.4,3.09,5.71-2.73,4.7-1.75,6.11,4.27,3.41,3.44,1.29,6.65,1.25.75,0,.67,1.91,1.66,2.4,1.44.72,4.08.55,4.98,1.57.26.3,1.36,7.38,1.27,7.76-.17.76-2.31.56-2.26,1.14.18,2.08,4.14,8.5,4.9,11.19l-2.44,1.78,4.92.02-1.24,3.67,3.7.62c-2.38,3.34-3.76,3.03-7.38,1.86,3.04,5.81-2.87,2.87-5.45,7.46-.7,1.24-4,7.47-4.11,7.92-.15.6-.14,11.78.11,12.35,1.07,2.5,11.26,2.72,14.38,4.28,1.33,1.72-10.19,7.2-11.15,8.03-1.19,1.02,1.07,3.62-2.38,3.06-.29,2.22,2.75,1.27,3.96.89,2.56-.8,4.64-3.32,8.33-2.12.79,5.97.98,6.34-.75,11.94-.65,2.11,2.86,3.04-4.16,4.1l1.2,2.38-4.9,1.26,1.22-4.91-4.91,1.22,2.45-2.44c-4.05.1-7.7,2.07-11.71,2.46-3.49.33-8.92-1.26-11.08-.73-3.89.96-6.69,5.59-11.68,4.42l1.24,2.44-6.76,1.26,1.82-2.47c-4.02-1.25-5.52,6.52-6.16-.01h-1.2c.58,4.83-4.33.9-7.9,1.22-1.87.17-3.5,1.77-5.24,2.01-30.11,4.2-60.04,6.04-91.39,9.54-2.49.28-13.04-.67-13.51-.19-.35.36-.12,1.53-.17,2.17-2.22.64-.45-2.45-1.83-2.46-1.2-.01.03,2.04-1.37,2.43-2.98.83-7.6-1.93-8.48-1.94-.78-.01-2.52,1.98-4.92,2.1-3.05.16-7.92-1.43-10.57-.63-1.12.34-10.11,5.19-10.62,5.78-2.6,3-1.46,7.83-1.76,8.13-.58.59-2.83.51-3.85,1.39-19.98,17.32-16.19,39.02-18.62,62.14-1.38,13.15-7.45,39.36-3.13,51.4,3.11,8.65,1.26,12.59,2.93,19.47,2.34,9.68,2.73,10.81,3.9,20.99,3.17,27.61,24.26,69.5,49.5,82.21,6.28,3.16,27.61,12.78,33.44,14.34,3.22.86,10.22.23,13.98,1.79,1.48.61.29,2.9,1.53,3.84,2.33,1.77,6.98.57,9.53,1.14.97.22.66,2.16,1.39,2.23,7.03.66,7.16,2.66,7.64,2.73,2.26.32,4.62-1.28,7.05-1.17,9.09.41,15.98,3.96,25.05,4.52,3.41.21,9.41-3.39,8.95,1.51h1.2c.02-5.79,7.04-.57,10.4.09,2.82.56,12.28.98,12.83,1.32.81.5,1.2,4.62,1.42,4.77.18.13,2.55-1.34,4.18-1.19,4.15.39,10.2,3.62,14.95,3.46,3.98-.14,6.82-4.52,11.09-4.87,3.38-.28,6.84,5.15,7.29,5.05,1.11-.24,2.77-2.65,4.93-2.53.64.04.47,2.14,1.23,2.32.55.13,9.98-1.03,11.15-1.28.77-.16-.34-3.47,4.26-.96v-3.71c4.69,2.57,3.29-.92,4.51-1.21,4.65-1.12,9.55,1.42,13.95,2.47l-2.45,2.43,3.68,1.23-3.68,1.23c5.17.86,14.21,4.63,4.9-1.86l2.5-5.52,1.82,4.92c1.66-4.64,3.54-2.57,4-2.84,7.2-4.25,6.85-1.95,14.33-3.42,9.44-1.85,23.64-6.47,33.34-6.02.63.03,1.26-.08,1.89-.01l-1.25,2.44h3.71s-1.25-2.44-1.25-2.44c2.62-2.45,16.19-1.47,19.73-3.23,2.59-1.29,4.61-7.8,7.69-9.38,4.77-2.47,14.73-3.74,19.65-5.9s-.21-1.8,8.75-2.82c.8-.09,12.85-6.46,13.51-6.91,1.5-1.03,1.9-3.41,4.93-5.31,5.38-3.37,21.16-2.96,16.84-11.99,5.82,1.15,5.93-3.24,9.21-6.22,1.55-1.41,4.74-1.92,5.33-2.76.64-.92.03-3.07.28-3.31,1.03-.98,5.74,1.25,5.99,1.08.26-.19.74-2.62,1.88-3.67,5.34-4.89,9.45-9.81,15.2-14.63,2.62-2.2,6.56-1.76,3.97-4.96,7.76,1.1,3.56-1.89,5.21-4.64,1.49-2.5,6.13-9.13,8.34-12.03,10.47-13.76,18.52-22.74,23.74-42.76.32-1.25.13-2.17-.34-3.32,1-.32,3.18.28,3.7-.05.49-.31-3.18-10.52,3.69-8.62-1.05-3.39-1.66-10.19-.75-13.65.55-2.1,2.58-2.35,2.71-2.67,1.93-4.65-.37-7.51,6.64-7.08.53-2.1-2.05-.57-2.25-1.79-.33-2.05,1.76-7.41,1.99-10.19.31-3.77-2.94-6.73,1.79-9.8.52-.34,2,.93,2.12.84.5-.39.66-4.95,1.57-5.85,3.74-3.67,15.56.97.95-12.57l3.69-1.88c-4.07-.23-1.06-7.43.08-10.78.29-.86,2.07-.95,2.13-1.12.32-.82-1.38-2.6-.92-3.34,1.56-2.5,11.47-1.2,2.41-7.53,4.63,2.59,2.96-1.96,7.38-1.28-1.58-4.23-.57-8.44-1.09-12.9-.67-5.8-1.99-11.38-2.22-17.01-.33-7.92,1.68-17.89-2.08-25.14-.88-1.7-7.64-7.5-7.85-8.02-8.69-22.21-17.28-43.45-33.09-63.58-14.04-17.88-34.57-31.66-44.66-51.52-4.51-8.87-4.28-15.25-7.52-23.95-.35-.95-2.38-.97-2.49-1.74-.39-2.87,2.6-4.99,2.58-7.2-.01-1.32-3.07.29-2.51-1.85l3.55-.75,6.28-4.18-3.08-1.24c4.56-2.45-3.04-4.55-3.91-6.45-2.43-5.35,4.55-6.44,8.22-7.11l.02,3.71c.54.68,3-3.05,3.67-2.46.45.39-1.01,2.94,1.23,2.46l4.93-3.7-7.37-5.53c3.83-.34,5.28-2.33,8.61-3.69l-3.69-3.06c4.64-.56,8.87-3.31,13.8-2.19,5.82,1.32,3.52,4.17,3.78,4.41.51.48,1.97.07,2.11.25.22.29-4.14,4.02-.41,6.25,8.33,4.2,20.5,5.65,28.38,9.47,4.26,2.07,5.42,7.06,7.76,8.24,7.03,3.55,20.93,5.45,26.29,8.18,5.72,2.9,20.33,20.34,24.68,25.37,1.69,1.96,5.48,2.56,3.15,5.24l3.72.02c-2.3,5.05-.03,2.91,1.68,5,3.13,3.81,6.51,8.52,9.38,11.57,2,2.12,10.76,6.89,13.01,10.52,1.25,2.02-.83,4.26-.51,4.75.22.33,2.16.5,2.82,1.42,6.74,9.34,10.91,16.37,15.18,26.65.58,1.4,1.7,2.44,2.74,3.49l-2.45,1.82c8.57,1.37,4.22,3.77,4.93,7.9,1.3,7.5,3.48,8.41,7.01,13.3.2.27,1.28,5.4,1.57,6.57s-3.05-.33-2.43,1.78c4.11-.51,1.05,1.54,1.54,3.95,1.15,5.73,4.4,11.13,2.14,16.98,7.27-.67,3.35.72,4.84,3.07,1.08,1.7,5.19,4.92,5.74,5.88,2.04,3.54,2.73,13.05,3.99,17.69.48,1.77,2.23,1.66,2.43,2.31s-.97,3.31-.84,3.71c.28.86,2.17.43,2.29.6.25.37-4.19,4.68,0,8.04l-7.07,7.35c2.41,5.33-1.22,6.77-1.45,7.54-.35,1.14,1.06,4.78.91,5.98-.09.7-1.51.59-1.66.9-.41.86.5,1.97-.46,2.74-.76.61-2.98-.68-3.79,1.28l3.71.62c-2.39,2.89.91,2.22,1.12,3.24.58,2.78-1.33,6.95,2.55,10.28l-3.69.62c4.7,6.39,1.18,2.92-1.83,5.55-.45.4-2.05,3.55-1.89,3.68.73.55,4.09-1.19,3.7,1.23-6,.85-4.69,3.29-6.05,5.54-.7,1.15-2.67,1.97-3.18,3.05-.82,1.72,2.32,5.36,1.91,7.88-.12.74-1.94.76-2.08,1.09-.1.25-1.02,4.43-1.16,4.62-1.34,1.79-4.68.21-6.66,1.23l2.45,1.21c-2.41,5.5.55,3.02,1.22,3.71,2.52,2.61-3.09,1.94-2.43,3.67l2.17.21c-1.81,2.81,1.52,2.18,1.58,2.91.03.39-2.38,6.19-2.88,7.34-.34.78-2.16.55-2.15,1.33.01,1.19,1.8,3.22,1.16,4.06-.42.57-2.73.34-3.16,1.94-.16.59-.17,11.13-.05,12.23.19,1.72,2.07,3.56,2.04,3.87-.1.97-2.75,1.33-3.26,2.08-.46.67-7.25,13.41-7.48,14.19-.87,2.97-.17,7.33-1.16,9.87-.58,1.5-2.35,1.48-2.51,1.8-.26.51,1.04,2.12.92,2.19-.5.34-2.78-.41-3.6.1-.29.18,2.39,4.12-3.8,3.66,1.36,2.17,1.58,2.68-1.23,2.42-.61,2.38,2.72-.01,2.44,2.43-4.75.65-8.96,2.25-7.4,7.76.38,1.33,2.83,1.18,3.49,2.86.11.28.24,5.73.2,6.03-.17,1.24-2.53.41-3.66.62-.53,2.18,2.12.81,2.45,1.23.25.31-3.36,4.95-1.24,7.37l-3.68-1.22c-1.88,2.76,5.1,2.67,2.46,4.92-.34.29-6.99.78-8.61,2.48l2.45,1.79c-4.2,4.48-2.73,10.07-3.95,14.55-.69,2.53-5.17,5.48-5.47,6.09-.42.86.44,2.98-.19,4.1-1.41,2.53-3.97,5.94-6.39,7.31l2.45,1.82c-10.97,6.43-3.32-.78-3.68-1.2l-2.45-1.22c2.56-.33,2.95-3.35,6.14-2.49v-1.2c-7.77-2.11.06-7.53.07-8.09.14-5.35-5.97-6.71-8.38-2.67-.63,1.05,0,2.88-.41,3.57-1.32,2.3-6.86,13.76-7.46,14.35-.19.19-2.15-1.09-2.9.1-1.23,1.95-.88,5.65-2.29,8.29-.21.39-5.52,6.28-5.93,6.44-.37.15-8.25-2.27-1.01,1.99-5.94,8.67-12.05,17.3-19.65,24.71-1.76,1.72-4.99,1.9-6.89,4.73-1.65,2.46-1.83,6.43-2.08,6.67-1.84,1.78-7.23,4.47-10.1,7.68-1.25,1.4-1.56,4.3-2.12,4.66-1.12.7-3.73-.32-4.55.32-1.16.91.52,7.69-5.1,6.03l1.26,2.44c-7.45-1.94-3.41-.72-5.66,2.35-5.79,7.92-20.26,14.87-28.79,19.88,2.86,1.89-3.84,5.43-6.16,6.49s-12.32,3.19-13.59,4c-1.42.9-1.78,3.81-3.7,4.86-1.08.59-3.1-.44-3.66-.06-2.17,1.46.12,3.52-.21,4.16-.45.87-10.87,8.63-13.32,6.35.98,1.01,1.12,3.55,1.25,3.69.6.66,14.58-5.43,15.96-7.4,1.02,4.12,5.74,6.76-1.2,6.17l2.45,1.83c-4.23,4.19-4.19,8.2-11.48,6.76-.4-.08-2.09-4.43-4.51-2.43-.55.45,1.65,3.36,1.23,3.67l-9.84,1.24c1.56-6.79-5.74.21-8.01-6.17-.82,3.65-3.69,3.75-2.46,0l-9.23-1.22c-.44.4,1.77,2.75,1.2,3.56-.34.48-9.13,4.78-10.43,5.16-2.41.7-4.03-.19-5.84.17-1.49.3-2.83,3.06-4.62,2.16-.17-.09,1.75-3.47-1.22-3.68.49,1.2-2.93,7.23-3.26,7.48-2.41,1.79-5.95-.46-6.6-.08-.19.11.94,2.02.62,2.46-2.12,2.94-15.15-2.04-19.09,0l1.25,2.44c-1.78.09-3.74-.29-5.48.08-6.55,1.41-13.31,1.66-19.81,2.28s-13.24.42-19.59,2.64c-1.27-5.33-2.59.41-6.37.84-3.18.36-8.17-2.51-11.54-2.75,5.02-5.06,15.38,2.72,11.08-6.77,4.03,2.76,9.56-1.02,11.47-.99,1.58.02,3.23,1.7,5.14,1.67,4.85-.08,14.74-3.75,19.7-4.15,2.92-.23,6.67,1.96,7.38,1.87.93-.12,6.08-4.34,6.47-4.44,7.65-1.88,12.54-.87,21.53-4.13,9.91-3.59,19.56-5.78,29.27-9.09,1.89-.65,4.67-3.16,6.76-4.12,1.27-.3-.32,3.14,1.81,2.44.19-3.74,6.76-3.53,9.53-6.49,1.24-1.32.66-3.61,2.49-4.62s6.09-.56,8.45-.95c3.74-.62,4.1-4.1,7.86-.24l-1.21-6.15c8.89,3.11,7.12-2.11,9.49-3.71,5.06-3.41,5.63,1.18,6,1.27,5.83,1.41,4.02-2.35,4.66-3.47.24-.42,1.86-.12,1.97-.27.56-.8-3.06-2.95-2.44-3.66.37-.43,2.97.96,2.46-1.23l-2.46-1.23c4.33.28,14.04-3.2,10.46-8.69-.81-1.24-3.5-.45-3.07-2.39,4.2-2.37,10.3-.26,13.9-1.22,1.06-.28,1.17-2.21,2.22-2.98s2.74-.5,3.31-.94c.34-.26,2.52-6.04,3.27-6.84,4.01-4.32,8.31-3.09,11.03-5.15,1.72-1.3-1.22-5.32,5.65-3.82.33-1.78-2.85-2.1-3.82-1.88-2.51.57-4.26,6.29-6.02,4.34-.37-.41,1.1-10.42,1.46-10.83,3.14-3.53,10.42-.06,5.92,5.9h3.7s-1.25-2.44-1.25-2.44c4.15.46,5.92-2.36,8.78-4.22,1.12-.72,3.25-.56,3.51-.79.12-.11-1.1-1.59-.82-2.1,1.04-1.87,5.98-3.99,8.22-4,.41-1.97-3.52-1.57-3.67-3.05-.27-2.72,4.37-3.26,5.43-4.36,3.56-3.73,6.58-8.08,10.46-11.73s9.74-4.68,11.18-11.61l-10.45,1.23c-2.66-2.39.82-2.08,1.45-3.15.32-.54.5-3.8.66-3.99,1.23-1.47,6.33-2.36,6.83-2.99,1.39-1.75-.56-7.22,6.11-7.42.93-4.13,6-7.16,10.16-8.33-.63-1.17-4.01-8.24-3.7-8.59.26-.29,4.77.26,4.93-2.47l-4.93,1.21.62-2.46c-1.33.28-5-.4-5.53.01-2.84,2.2,3.2,2.16,2.45,3.67-6.23-1.81-5.74,2.05-6.21,2.4-2.54,1.86-2.19-4.14-6.11-2.37l.61,2.48c-5.1-2.92-3.72.73-5.2,1.19-1.26.39-3.55-.28-4.03.02-.7.45,1.34,4.44,1.09,4.77-.35.48-3.06.5-3.48,2.13-.37,1.41,1.22,3.25.95,4-.05.15-1.81.04-2.61,1.7-1.44,2.97-1.23,10.29-3.49,11.92-.83.6-4.14-1.71-4.74-1.15-.63.59,1.57,4.87-2.46,3.71l-.61-3.7-9.71,11.07c1.01,4.43-1.44,1.56-4.78,2.52-2.27.65-6.93,9.7-4.59,12.25-3.16,1.06-2.99-3.43-4.5-3.76-7.37-1.62-7.81,10.12-12.73,13.61,11.01-4.63,5.43,6.28,6.23,7.3.6.77,5.07.26,4.83,2.54-5.95.28-3.81,2.55-4.52,3.65-3.1,4.76-2.98,5.01-9.02,5l1.24,2.44c-4.66-1.86-8.77,4.76-9.31,4.9-2,.53-6.37-6.36-16.55-1.81-1.92.86-1.31.85-.35,1.83,2.21,2.25.5,4.52,5.27,3.7l-1.21-4.9,2.43,2.45c.66-4.84,2.56-3.48,6.17-2.44-.82,6.06-4.57,2.07-4.91,2.43-.23.25.51,3.09-1.99,4.91-1.93,1.41-4.46-.27-5.15.2-1.27.86-6.58,7.5-9.75,9.35-4.3,2.51-17.41,7.93-20.68,2.83-2.36-3.67,3.19-1.23,1.86-4.96-5.34.3-12.91-4.79-18.17-.97-5.93,4.31,7.97,8.31,8.3,13.25-2.78,2.38-6.6,2.61-9.03,3.96s-5.26,8.96-8.21,1.58c5.22-1.78.1-5.95-3.67-7.37l2.45-1.83-15.99-1.23,2.45,2.44-3.41.62.98,1.85c-8.04.3-2.46,2.37,1.19,4.32l-6.12-.61c3.35,7.88-4.78,2.1-9.17,3.14-2.19.52-5.47,3.25-7.39,3.09-.68-.05-.62-2.53-1.37-2.59-2.89-.22-14.61,2.67-10.38,7.42-3.69-1.17-8.72,1.52-11.65,1.22-2.66-.28-3.79-3.23-8.57-2.43-7.27,1.23-12.69,5.83-18.75,8.33-1.61.66-2.76,2.64-4.71,2.7-4.67.14-7.55-5.65-9.89-6.12-.58-.12-.45,2.25-1.36,2.48-.78.2-2.79-.93-4.17-.78-1.57.17-2.88,2-3.06,1.98-1-.07-1.44-3.06-2.05-3.44-3.03-1.85-15.17,5.42-15.79,4.7l-.02-3.71c-3.97,4.22-4.92.81-7.95.57-6.02-.48-13.09.52-19.03.04-3.36-.27-6.15-3.41-11.18-.61l.62-2.45c-8.74-1.53-23.58,5.15-27.71-6.15-2.07-.64-.64,2.33-1.73,2.35-.75.01-8.29-1.95-9.64-2.44-.87-.31-.91-2.33-1.73-2.42-.69-.08-13.04,1.83-13.66,2.13-1.6.79-1.51,2.82-2.24,2.85-2.06.08-5.99-2.25-8.55-1.92-1.4.18-5.22,3.08-8.82,3.84-3.21.68-6.14-1.93-9.65-3.11l-7.96,6.08c6.84,1.35,9.93,8.56,13.74,13.35,2.6.71,5.17-3.42,5.51-3.42.83-.01,1.9,1.25,2.71.88s-.02-4.27,6.73.26c1.16.78.74,2.41.85,2.49,4.89,3.92,4.02,1.85,7.82,2.4,1.18.17-.01,3.64,3.25,1.3-2.3,4.71.51,3.34.81,3.97.37.78-1.85,2.56,1.65,2.21-.45,2.33-3.06,2.42-4.91,2.46l2.44,4.3-4.9,1.86,2.47,1.83c.13.99-2.17.64-3.06,1.81s3.29,3.46-5.56,2.49c-.41-2.32,2.43-.57,3.43-1.42.17-.14,1.27-3.96,1.22-4.17-.36-1.83-4.18-1.51-5.28-2.96-.81-1.06,3.51-3.95-4.29-1.29l6.15-3.7c-3.39-1.93-.8-10.53-1.23-11.07ZM473.33,841c.59-.59.16-3.34.77-4.79.7-1.65,2.12-2.84,2.69-4.56,1.79-5.36-4.61-6.7-4.21-4.64.65,3.41-1.48,1.19-1.5,2.54s1.62,2.42.64,4.19c-.52.93-5.18,4.63-6.79,3.72-.42,2.41,2.88.55,3.61,1.27.58.57-.15,3.63.08,4.88,3.27.28,2.59-.05,1.21-2.46.96-.08,2.97.38,3.5-.15ZM458.66,865.66c1.72-1.87-5.9-7.93-7.2-7.22-.16.08-2.16,2.59-2.22,2.76-1.15,2.86-2.73,7.35-3.51,10.62-.21.87-1.5,1.46-1.73,1.96-.55,1.21,3.1-.31,2.45,1.82-7.23,2.65-1.1,3.96-1.23,4.32-1.15,3.22-5.15.78-7.38.63,4.49,4.2,4.72,8.71,12.31,8.59l-2.46-3.67c4.58-1.98,7.04,2.11,8.63-3.11-5.45-.95.41-11.16-.03-11.67l-3.68.62,5.55-3.07-1.85-2.46c.66-.09,2.07.18,2.35-.12ZM418.15,939.63c-.88-1.13.07-5.24-.59-6.13-3.28-4.52-3.55,4.11-8.03,3.68l3.68,2.43-4.92,3.69c3.11,1.41,2.33-2.56,3.02-2.45,3.33.53,4.35,3.53,9.28-.02.89-4.37-2.32-1.05-2.44-1.2ZM372.58,1008.58c-.34-.32.23-3.76,0-4.93-1.97-.55-.9,1.85-1.43,2.07-.84.36-3.35-.32-4.7.4l3.7,1.83-3.7,1.23c1.61,2.05,6.45,2.36,7.37,4.95,1,2.81-3.96.55-4.93,4.93-.18.83,2.94.2,2.48,1.2l-3.68,2.46c3.23,2.31,7.43.49,10.48,4.08,3.72-1.51,1.62-3.84,1.93-5.12.21-.86,4.79-1.04,1.23-5.21-1.33-1.56-4.21-1.13-3.79-2.96l3.68-1.23c-5.36,1.26-3.05-2.81-3.78-3.56-.79-.8-4.37.3-4.84-.14ZM1176.49,1256.01c-.45-.38,1.01-2.94-1.23-2.45,1.71,2.46-.41,9.53-.01,9.83,3.27,2.48,6.96-5.08,11.09-3.69-2.51-4.55-.61-2.33,1.21-4.9-3.5-2.78-10.62,1.59-11.06,1.22ZM1247.87,1263.4c3.38-4.81-2.56-10.15-6.15-8.04-3.96,2.33,4.85,7.13,6.15,8.04ZM1185.23,1306.38c-.2-.12,1.63-4.15-1.86-3.5-.36.07-5.61,3.86-5.61,4.21-.04,2.94,6.89,5.92,9.81,5.54-2.11-3.06.58-2.18.87-3.1,1.44-4.65-1.87-2.35-3.2-3.15ZM1175.74,1418.07c-1.56-1.74-1.59-4.06-4.75-3.2l-4.35,4.86,6.15,1.26-1.24,2.44c4.25,1.05,3.66-1.91,6.16-4.31.41-.94-1.31-.32-1.97-1.05ZM1130.92,1443.15c3.89.28,6.93-.15,6.15-4.93-2.12-.57-.6,2.42-1.74,2.36-.82-.05-2.22-1.3-3.64-1.22-.49.03-1.98,5.04-5.67,2.55-1.01,5.33,1.71,3.55,6.15,3.69l-1.25-2.44ZM1107.5,1446.9c-4.12-1.76-16.07-4.27-11.1,2.75,1.25,1.77,6.09,4.11,4.38-.37,3.43.1,5.84,4.12,7.99.62l-2.21-1.22.95-1.78ZM1096.25,1502.48c-.99-.59-2.33-.18-3.47-.24l2.45,2.43-8.01,3.7,1.86,2.46c-4.16.23-7.18-1.72-6.14,3.7l8.61-2.49-1.24-2.42c5.92,3.06,10.92-4.18,5.95-7.14ZM1079.22,1512.09l-13.53-1.23,2.48,4.28-2.47,1.85,4.96.51,8.57-5.4ZM674.19,1547.79c-.31-.32.58-4.13-.61-6.16-.31-.53-9.23-6.99-10.05-7.27-2.62-.92-3.05,3.89-3.21,4.14-.74,1.18-1.96.5-2.11.68-1.83,2.3,8.75,2.67,9.85,3.04l-1.25,3.09c8.7-1.48,5.22,2.54,6.23,3.56.22.22,6.42,1.13,6.07-1.08-1.18-.23-4.59.35-4.93,0ZM930.26,1552.69c-.31-.68-14.24,1.96-14.77,2.49-.2.2,1.71,3.42,1.34,5.41-.25,1.35-3.1-.09-2.55,1.95l9.85-1.21-1.26,2.44c3.5-1.66,4.83,3.64,5.55,3.68.34.02,5.43-3.93,5.42-4.27,0-.29-1.54-1.39-1.86-2.74-.99-4.12-.98-2.07-1.66-3.73-.5-1.22.28-3.29-.05-4.03ZM730.73,1561.22c.23-.25-2.03-5.97-2.97-6.02-2,.87-.73,3.02-1.28,3.77-.78,1.07-2.13,0-2.68.43-6.99,5.32,2.94,11.18,7.05,3.17l-2.45-1.23c.66-.09,2.08.18,2.35-.12ZM1031.52,1579.44c-.8-.48.45-2.63-1.52-2.11-.05,4.14-1.02,5.81-4.93,3.69,1.49,10.09,4.99,2.27,6.73,2.33,2.72.1,3.52,1.52,5.56,2.59l-4.9-3.71,2.45-2.44c-1.12-.03-2.34.25-3.38-.36Z"/>
  <path d="M1742.3,584.31c5.21,4.48,12.44,10.6,17.14,15.49,4.36,4.54,8.14,14.31,15.34,14.84l-2.45,2.44c7.85-.63,3.52.88,4.41,3.73.56,1.79,3.61,3.86,3.88,5.7.22,1.56-1.18,3.35-1,4.61.14,1.01,2.27.64,2.43.84,1.78,2.31-1.41,2.2-2.3,3.27-2.37,2.85-2.11,4.77-2.94,6.25-.33.6-2.55-.53-2.02,1.45l2.45,2.47,9.85-1.22-1.21,6.14c2.13.49.78-1.85,1.35-2.31.47-.38,2.25,1.5,3.55,1.1-.48,2.59-3.68-.3-1.22,3.67-.18.17-4.95-2.15-4.9.62.05,2.32,5.58-.48,7.21,3.85s-3.51,2.06-4.77,4.77c-1.65,3.56,2.31,2.88,2.43,3.08,1.98,3.26-2.57,2-3.51,2.56-.25.15.15,4.22-.7,5.72-.17.29-4.42,4.71-4.73,4.84-2.76,1.14-7.83.28-8.12.57-1.44,1.46-.45,6.48-6.29,6.05-.12.16,1.27,1.81,1.02,2.2-2.75,4.38-25.97,2.22-32.67,3.61-3.33.69-2.73,2.35-3.74,2.66-6.42,2.02-8.82.58-16.59,4.12-27.32,12.46-69.28,37.4-91.49,57.47-1.76,1.59-10.02,10.27-7.95,12.35,2.52-1.57,13.21.14,14.16-.17.65-.21.43-2.09,1.44-2.31,1.42-.31,13.42,1.72,13.94,1.25l-.59-3.7c1.09-.26,8.54,2.03,9.07,2.63.15.18-1.02,1.65-.73,2.02.22.28,4.08,3.39,4.39,3.5,4.71,1.74,1.38-1.17,1.67-1.75.13-.26,4.18-3.76,4.44-3.9,3.4-1.83,4.35.62,6.93.97,9.9,1.36,10.5,4.64,16.25,5.98,10.12,2.35,25.23,2.92,36.72,4.69,2.4.37,7.12-.94,9.53-.27.91.25,15.13,7.7,15.58,8.46.18.31-1.49,2-1.1,2.28l7.39-2.44-1.23,4.91c3.69.46,8.62.73,11.99,2.18,10.64,4.59,21.43,17.24,31.94,23.46,5.73,3.39,13.62,5.95,19.04,9.27,16.88,10.37,27.54,26.75,42.09,37.31,1.95,1.42,6.06,1.88,7.78,3.3,5.32,4.4-.23,16.14,10.26,16.83.49,2.18-1.96.77-2.39,1.29-.4.48,5.31,8.49-2.52,10.38,4.92,1.69,2.48,3.85,2.67,4.1.94,1.26,5.66.98,3.49,5.13,8.63-3.67,4.98,10.77,6.13,15.22.34,1.31,2.24.26,2.49,1.42.7,3.29-2.53.51-2.46,3.05,8.38-.09,3.21,11.02,12.3,11.11l-2.46,4.9,3.69-1.23c3.08,6.76-3.75,2.36-3.69,7.39l4.92.02-1.85,3.65,4.99-1.15c1.29-1.48-3.46-8.04,3.14-6.81,4.99.93,6.27,5.35,8.5,9.21-3.66-2.78-5.23.96-3.7,2.46,1.25,1.23,10.31-1.44,6.16,9.85h3.72c-3.02,3.97,1.91,2.18,3.48,3.87.12.13-.63,1.97-.08,3.11,6.88,14.34,11.71,27.29,14.98,42.97-5.42,1.76-.21,1.32.09,2.52.18.73-.99,2.76-.79,4.17,1.37,9.37,2.84,19.26,2.13,28.96l2.31.6v1.2c-4.79-.21-1.04.82-.62,3.08.97,5.21.69,16.56-.6,20.96-.26.9,1.71.43,1.91.88,1.6,3.47.76,5.46-.71,8.87-1.06,2.45.73,2.37-3.65,1.91l2.45-3.07c-2.16-1.68-5.28-6.68-5.62-9.2-.26-2,1.56-2.25,1.92-3.12.44-1.06-1.82-.22-2.21-1.17-.45-1.11.99-5.87.34-6.9-.75-1.19-4.17-.45-3.08-4.24l2.49-1.82c-5.71,2.07-6.62-10.33-2.46-9.88v-1.2c-4.29.65-.89-3.48-2.44-6.43-.8-1.53-5.78-2.76-3.5-5.76.42-.55,2.84.71,2.24-1.35-3.69.47-1.26-1.48-1.63-2.18-2.3-4.24-.56-2.2-1.28-5.22-1.12-4.69-4.69-10.29-3.23-16.02l-2.45,1.25,1.23-3.69-3.71-.02,1.25-4.91-3.71-.02c.43-1.1,3.98-8.22,3.7-8.59-.24-.31-6.1-1.31-7.37-2.48l2.47,6.14-3.7.62c7.12,4.04,2,2.25.61,4.27-2.27,3.27-.21,4.37,3.09,3.75-3.93,6.46-1.74,3.59-.04,5.82,4.49,5.87,1.15,10,1.59,15.95.07.97.91,7.81,1.05,8.21.63,1.84,3.1,1.73,3.4,2.16.25.37-1.27,2.58-1.04,4.11,1.75,11.68,6.69,22.64,5.59,35.11-.5,5.63-.86,17.8-8.08,17.29-.17,2.29,3.95,1.68,4.84,2.58s-2.23,4.98-2.39,5.43c-.33.95,2.24.23,2.43,1.33.88,4.96-4.71,7.55-2.43,12.8-7.09,2.59-.55-6.87-1.23-7.36-.55-.39-3.65.25-4.92-.02-.49-2.24,2.07-.78,2.46-1.23.35-.41-1.48-2.38-1.84-2.42-5.22-.53-3.02,12.14-3.09,15.25-.02.87-2.16.61-2.84,2.25-.2.48-1.7,9.7-1.63,10.22.15,1.09,1.85,1.9,2.45,3.03,1.01,1.9-2.84,3.17,5.73,2.46l-1.26-2.44,3.71-1.23-3-1.29c.88-1.93-3.1-.45-1.91-3.01.65-1.39,5.94-2.12,6.13-1.86,2.16,2.97-2.98,1.75-2.44,3.68,8.36,1.17,3.27,2.07,2.74,3.08-1.37,2.56,2.15,3.38,2.13,3.63-.21,4.05-5.11,3.93-2.42,8.08l-3.68-1.24c-1.1-1.23,4.49-5.12.6-6.14-6.47-1.7-6,3.62-1.84,6.77l-2.45,1.82,7.37,3.7c-2.18.57-6.91-1.45-8.61-.63-3.48,1.68,1.08,1.84,1.24,2.67.24,1.3.37,4.74.06,5.83-.11.4-6.7,4.22-7.1,4.33-2.59.72-5.14-3.35-6.5-2.34-1.03.76.06,4.83-.09,5.35-.77,2.5-1.07-.85-1.53,6.18-.06.84-1.64,1.86-1.64,2.64,0,1.28,2.8,2.08,2.02,4.29-4.3-2.89-3.66,3.21-9.83,1.24l2.45,1.83-3.68,1.87c.39,1.51,7.03,3.91,7.38,3.67-2.23-3.41.23-2.01,2.54-4.25,2.01-1.96-.54-4.2,4.85-1.9-1.51-3.05,1.08-4.09,3.09-6.14.81,3.85,7.83,1.88,1.83,4.3-.13.61,5.06.91,2.47,3.07-1.54,1.28-4.24-2.98-4.89-2.46-1.12.9-.68,5.63-7.42,3.7.22,3.55,1.3,8.73,4.9,10.33,1.12.49,3.19-.96,4.37.7,1.37,1.93-.28,8.78-4.93,4.96l.61,2.47c-5.69-1.89-5.2-.4-7.8,4.97-.38.78.53,2.33.4,2.42-2.86,1.94-2.36-4.89-4.92-2.44-.31.3,2.04,4.76-2.46,7.36l4.92.62c-3.19,3.09-5.06,7.85-8.6,9.26v1.2c4.58-.88.59,5.05.61,6.76.06,4.74,3.62,2.56,4.32,3.12.96.77-3.47,8.33-7.39,6.14.14-1.33-.29-2.92-.02-4.13s4.07-.43,1.84-2.03c-1.74.97-5.61-.25-6.81.58-.97.67-.08,2.1-.48,2.84-.18.33-1.56.33-1.64.9-.16,1.21.6,7.06,1.25,7.72.43.44,5.64,1.73,5.86,1.52.63-.6-1.47-5.04,2.46-3.7-.99,2.32,4.42,12.73,3.7,13.54-2.34,2.64-2.27-4.61-4.93-2.44-.28.23,1.1,1.65.85,2.14-.3.58-5.96,7.33-6.43,7.5-1.05.39-7.73-.94-4.26-3.48l-5.53,1.24.61-2.47-6.16,2.47,2.45,2.43c-8.61-.3.16,5.06,0,5.55-.7,2.24-5.59,2.84-7.27,5.04s-2.12,6.92-3.11,8.8c-.45.85-3.73,2.56-4.03,3.07-.28.47.96,2.02.85,2.12-.43.39-5.02.26-6.13,3.15l2.45,1.83c-5.04-.15-9.24,1.5-12.28,5.55-.12,1.62,6.78.15,3.66,3.07-.16.15-2.13-.33-3.21.45-4.39,3.19-4.06,10.2-14.03,8.18,1.44,2.57-1.6,14.51-2.67,15.77-1.44,1.68-10.47-.26-12.43-1.05-1.57-.63-.12-2.88-2.11-2.41.17,8.41-3.23,6.57-8.63,10.46l3.68,1.83c-6.02-2.3-12.23,2.02-16.5,6.28-2.83,2.83-2.09,7.47-7.49,6.04l.61,2.46c-4.04-1.67-6.86,1.75-11.08,1.25l2.46,1.23c-1.82,4.53-3.89,2.66-7.4,2.46l-3.68,2.47,3.68,2.43c-1.36,1.16-4.79-.21-4.9.01-2.12,4.16,3.65,3.98,4.99,3.03,1.1-.78.89-4.75,3.52-2.91.32.22-.28,3.88,5.01,2.33.06-2.22-3.91-.13-2.3-4.13.99-2.47,3.53-3.31,6.02-3.26l-1.22-2.39c8.82-3.62,5.59-1.36,8.77.95.36.26,7.28-1.4,8.83-1.08,1.63.33,3.86,7.66-.39,6.25v1.2c2.87-1.63,2.49,4.54,2.25,4.78-1.07,1.07-5.27.24-4.74,3.85l-2.43-2.44c.01,9.89-6.7,6.52-12.31,8.23-3.93,1.2-6.04,5.71-9.88,5.32,2.41,2.11-.62,3.86-2.96,3.78-.69-.02-.73-4.54-3.18-2.54-.34.27,1.34,2.16,1.2,2.37-2.33.64-6.68,2.48-8.23,4.13-1.37,1.46-6.2,10.13-6.71,10.53-.78.61-2.71-.11-3.8.21-1.27.37-1.01,5.6-3.37-.62l4.91-3.08-8.6,1.23,2.44,2.43c-5.72,3.34-11.23.38-17.84,2.79-.74.27-.54,2.17-1.36,2.24-4.85.41-7.35.37-13.17,1.39-1.54.27-3.72,2.22-3.95,2.2-1.22-.1-1.68-3.54-1.86-3.67-.24-.18-3.53,2.07-5.61,2.35-1.94.26-4.48-.74-6.56-.54-2.95.28-5.45,2.93-9.96.66l2.45,1.83c-4.54,1.27-3.7,5.07-3.94,5.35-.45.51-11.79,3.51-13,3.68-9.78,1.35-18.81-3.79-28.6-1.01l3.68,2.44c-4.04,1.35-9.79-1.3-12.83-1.24-.54.01-5.18,6.91-9.32,3.71-2.84-2.2,3.2-2.16,2.45-3.67-8.53,1.09-2.77-2.48-3.7-3.7-3.08,2.08-4.21-4.16-9.84-2.45v3.69s3.69,1.23,3.69,1.23c-1.37,4.09-7.34,1.14-10.28,1.64-6.53,1.12-10.97,5.16-19.65,3.25l-8.22-7.39,4.9-3.07-3.68-1.84,2.45-2.44c-6.66.25-12.32.16-17.9-3.68l.66,2.42c-1.76.86-5.91-1.43-6.14-1.22-2.61,2.39,5.57,3.65,6.71,4.97.73.84,2.29,5.74,1.89,6.1l-7.37-1.86,2.44-3.04c-5.96,1.63-6.14-9.46-7.94-9.61-2.09-.17-7.4,2.13-10.51.98-.91,2,4.44,6.13.59,7.37-2.94.95-1.15-2.64-2.44-2.47-3.83,7.34-6.83-2.23-8.53-3.75-7-6.28-27.81-15-36.09-18.11-1.58-.59-3.55-.24-5.24-.3l1.23-3.67c-4.98,1.25-8.48-3.57-12-4.62-3.08-.91-7.29.02-10.16-1.17-3.54-1.47-4.75-4.94-5.08-5.11-.66-.32-2.82,1.84-4.8.49-.81-.55-.87-2.67-1.37-3.05-.84-.62-3.08,1.22-4.1,1.11-.76-.08-1.88-5.32-3.39-5.9-1.3-.5-2.83,1.07-3.96.86-1.52-.28-1.54-3.11-2.09-3.48-.76-.52-2.46,1.17-3.33.91-.37-.11-4.92-8.52-4.97-4.08-.02,1.79,1.25,3.31-2.61,3.08,1.37-6.09-5.33-7.67-11.07-8.62l2.45-2.43-8.59-1.29c3.04-3.03-5.55-5.93-8.65-6.12,3.63-4.79-4.61-2.12-4.88-2.47-.9-1.15,1.29-5.08-6.2-4.91l1.21-3.57-23.37-14.31c-5.53-5.7-12.03-13.41-16.11-18.9-.27-.37-6.5-2.32-8.1-4.24-2.05-2.48-2.8-8.65-4.14-10.93-.81-1.38-5.97-4.75-5.96-6.52,0-.61,7.89-6.87,9.33-8.01,1.1-.87,3.66-.93,3.96-1.33.14-.19-.96-1.49-.83-1.69.64-.99,1.82-.59,1.93-1.24.14-.89-1.16-3.7-.54-5.01.85-1.78,4.38-2.71,4.41-3.62,0-.17-1.08-2.97-1.19-3.09-.27-.28-4.82,2.25-7.47-.85-1.64-1.92-1.01-4.76-1.46-5.92-1.51-3.88-4.02-6.19-6.19-9.48-1.61-2.43-9.12-14.81-9.03-16.36.05-.82,2.12-3.67,2.71-5.54.42-1.31-.72-3.42-.59-3.6.41-.57,6.5-2.01,7.13-2.74.19-.22-.86-1.29-.81-1.67.07-.45,6.6-2.79-2.74-4.35-.5-2.06,1.53-.74,2.15-1.42.13-.14.72-1.67,1.13-2.51.36-.74-2.9-3.83,4.46-2.18.99.22,1.15,2.2,2.38,2.83,4.33,2.21,8.41,3.48,11.71,7.27.26.3-.84,1.62-.58,1.9,7.85,8.69,19.86,10.95,28.29,17.49,5.6,4.34,10.9,13.09,16.98,17.84,4.43,3.47,13.15,7.53,18.34,11.2,4.09,2.89,16.54,14.62,19.83,15.86,2.43.92,6.77.39,7.25.83s-.61,2.77.87,3.61c1.97,1.11,6.76-.58,9.64,1.09.91.53-.34,1.94.16,2.5,3.92,4.36,7.49,2.2,7.79,2.52.42.46-.17,3.33,1.25,4.34,2.4,1.71,13.89,2.71,16.72,7.93,3.62.67.28-2.27.58-2.44,2.9-1.67,2.62,2.52,3.6,3.11s2.92-.86,4.24-.5c1.56.43,1.66,2.77,2.92,3.66,1.41,1,4.35,1.76,8.12,4.39,5.21,3.63,4.81-1.03,6.59-2.13,1.64-1.01,4.25-.6,5.7-1.43,2.28-1.29,2.2-4.43,6.61-4.3,3.33.1,5.41,3.77,9,3.36l-2.45,2.44c4.01,1.18,3.25-1.86,5.22-2.8,2.23-1.07,7.73-.93,9.93.35.75.43.72,2.36,1.67,2.51,3.72.59,7.14-3.88,8.41,1.21,2.68.09,3.07-2.76,3.09-4.95,5.16,5.98,8.03-1.15,9.22-1.21,1.71-.08.63,4.18,2.47,4.9,4.84-8.86,5.63-2.38,9.81-1.8,2.74.38,7.29-1.86,9.96-1.73,3.1.15,10.57,5.58,9.79-1.41,7.49,2.2,15.42,3.22,23.2,3.26,5.15.03,10.51-1.66,15.11-1.59,7.02.1,15.47,1.84,21.87.8.89-.14.74-2.48,1.43-2.53,2.56-.19,7.36,4.4,11.62,1.3,1.11-1.19-4.8-5.8-3.7-7.35.18-.26,5-1.12,6.15-1.26.49-2.24-2.07-.77-2.46-1.23-.63-.75,1.25-3.27,4.55-.75,1.68,1.28-.58,3.84,4.7-1.69l.59,2.44c8.86,2.11,1.82-4.85,5.57-6.13,2.58-.88,1.4,4.57,4.26,2.41.24-.18-.56-3.9,4.33-2.42l-.61-2.46c5.09,2.13,5.22-.92,8.33-2.16,7.94-3.17,14.57-9.29,21.75-12.66,3.41-1.6,7.57,0,7.92-.2.22-.12.76-2.31,2.11-3.36,1.15-.89,3.88-1.12,4.14-1.45.23-.3-1.55-3.43,2.88-5.72,3.27-1.69,3.86.25,7.04-4.91,5.09-8.25,3.3-7.69,12.01-13.84,1.35-.95,8.51-4.58,8.88-5.11.54-.78-1.59-3.19-1.19-3.54s2.84.71,3.87-.73c.57-.8-.12-2.86.61-4.23.17-.31,4.76-4.84,4.91-5.17,1.04-2.31,1.12-7.18,2.07-9.24.23-.49,5.66-8.33,6.07-8.68.97-.82,3.1-.03,3.42-.28.49-.39-1.41-3.45-1.25-3.68.14-.2,3.89-.55,4.73-1.42.27-.28.31-4.83,1.59-7.47,1.95-4.02,7.99-9.45,8.96-12.14,2.07-5.7,4.58-12.23,6.53-18.14,1.61-4.88,1.2-14.15,5.19-17.9,1.45-1.36,3.56-.59,3.79-.81.19-.17-2.12-2.81-.01-4.34,1.14-.82,3.79,1.09,4.92-1.2-1.15-1.97-8.14,1.43-7.35-2.43.33-1.63,2.79-4.06,4.31-4.35.39-.08.78,4.65,3.05,2.47.37-.36-2.26-6.97,1.17-9.76l-2.39-1.29c4.81.5,1.18-3.16,1.36-5.62.14-1.86,1.47-3.1,1.76-4.82.41-2.49-2.89-6.26,3.02-6.82-.46-2.03-5.44-1.5-.29-2.65-1.7-3.08,2.74-1.58.29-4.71l3.72-.02c-2.52-8.06-4.44-15.21-3.21-23.74.14-.95,1.43-2.14,1.78-3.93.18-.91-1.18-2.59-.88-3,.39-.53,2.82.79,2.29-1.32l-3.68-.62c2.45-.89,1.14-4.1,1.34-4.22,2.43-1.47,5.56,2.64,1.11-5,3.26-1.13,8.12-.54,8.23-4.52.19-7.32-4.8-2.07-5.75-2.88-2.73-2.35,3.16-2.09,2.44-3.67l-2.16-.21c1.78-2.72-1.41-2.21-1.39-2.79.04-1.08,1.25-2.77,1.22-4.99-.03-1.59-1.54-4.19-1.36-4.32.75-.56,4.09,1.19,3.7-1.23-7.14-.53.15-6.91-4.9-6.18-.55-2.03,1.91-.69,2.22-1.77.23-.78-.68-2.95.21-4.63,1.34-2.55,5.21-1.99,2.48-8.37-5.96,2.8-2.42.01-3.17-1.26-.51-.86-2.39-1-3.11-2.08-.19-.28-1.19-5.49-1.89-6.49-.64-.91-2.39-.99-2.7-1.48-.39-.6.23-12.43,2.27-13.91l-2.46.62c2.53-5.57-1.22-4.93-1.32-5.68-.23-1.69,1.8-6.37,1.02-8.5-.28-.76-1.88-.73-2.22-1.48-.73-1.59-.11-3.36-1.11-4.7s-6.91-5.71-7.38-7.58c-.81-3.23-1.2-9.47-2.63-14.24-.32-1.06-2.25-.92-2.41-1.73-.62-3.08,1.73-4.91,1.88-6.53.48-5.2-2.94-4.74-4.79-6.34-4.85-4.17-5.07-4.15-10.95-7.26-1.51-.8.42-3.58-4.57-1.22l1.26-2.43c-4.47.93-6.14-4.41-8.66-5.55-1.87-.84-3.94-.2-5.22-.7-1.14-.44-.91-2.27-1.73-2.43-2.07-.39-5.5,1.24-8.39,1.26-11.65.08-26.55-1.41-38.04-2.51-7.38-.71-15.46-7.17-22.91-7.34l2.45-2.44c-5.23-.15-10.1,1.96-15.44,1.28-3.02-.39-9.92-2.61-7.64-6.01.25-.37,3.74.15,1.52-1.45l-17.83,2.49c1.02,1.77,4.36,1.99,1.03,4.67-.18.15-1.92-.54-3.08-.02-12.93,5.8-9.51,2.4-21.32.86-10.08-1.32-10.77,1.45-18.16,2.81-5.82,1.07-16.45-2.46-21.19.99-.95.69-.98,2.78-2.18,3.05-3.04.69-11.96,1.16-17.26,2.12-10.74,1.93-21.59,3.46-32.34,5.22l1.25,2.44c-5.12-2.46-2.83.65-5.23,1.67s-4.63-.24-6.73.5c-6.81,2.39-16.23,7.72-22.23,10.07-10.98,4.29-19.06,7.81-31.17,5.49-1.16-.22-10.32-2.88-10.75-3.24s-.07-2.16-.65-2.9c-11.52-14.79-25.75-15.68-32.19-37.45-.54-1.84-.09-4.28-.63-6.63-.41-1.78-2.48-3.61-2.5-5.1-.03-3.45,11.23-6.95,8.66-9.18h-3.72s1.26-2.46,1.26-2.46c-6.65-2.49-7.74,6.58-8.77,7.24-4.42,2.87-2.68-4.32-4.78-7.24l11.08-1.25c-1.56-2.94,1.22-4.67-2.46-5.53,9.83-8.56,6.3-1.64,7.39-.62.14.13,4.27.77,3.68-1.21-3.61.98-1.43-4.11-2.45-4.94-.19-.16-3.51,2.36-4.92-.62,6.97-3.03.25-2.54-1.23-3.68-1.35-1.04-.85-3.26-1.53-4.01-1.7-1.87-7.7.13-8.24-.41-.35-.36-1.7-6.6-3.47-6.68,2.33-2.91-5.38-7.29-5.36-9.78.04-5.57,8.88-14.83,12.89-18.7,1.34-1.29,5.07-2.48,6.58-4.41.29-.38-.88-1.83-.72-2.02,2.48-2.93,16.45-2.85,20.78-5.1-3.6-4.71-1.47-4.63-.47-8.26.24-.89-.72-2.27-.51-2.61.45-.74,5.26-2.12,5.75-2.91.56-.9-2.83-3.84,3.85-6.3,1.5-.55,3.84.27,5.32-.69s1.27-3.27,2.53-4.64c1.66-1.8,7.69-4.69,1.46-5.22-.9-.08-2.1,1.14-2.99.8-.23-.09-.09-1.79-.76-2.01-6.25-2.02-10.55,8.11-16.64,5.99-.84-4.29,4.82-4.13,5.86-5.28.94-1.04-1.11-4.48,3.97-3.34l-3.69-1.23c.18-1.99,6.13-2.8,3.7-4.91-.65-.56-4.09,1.19-3.7-1.22,6.03-1.48,11.2,6.05,15.41,6.27,1.62.08,4.79-5.61,7.96-5.07l-6.14-4.3,3.7-.61c-2.51-5.23-1.14-4.64-.48-8.21.22-1.19-.89-2.77-.77-2.86.45-.37,9.61-1.57,11.37-2.59-.11-2.92,4.74-.23,3.43-2.94-.55-1.15-1.74-.39-2.04-.88-1.02-1.68,2.07-4.44-5.37-2.22l1.26-2.44c-5.23.93-2.14-1.73-4.95-4.92,3.78-2.68,10.63,2.14,11.73,2.12,2.03-.05,7.99-9.44,8.57-3.36.9-2.51,7.51-4.7,7.82-5.06,1.3-1.49-2.24-6.11,3.89-4.79-2.77-4.75.28-3.12.94-3.88.48-.56-1.16-2.6-1.05-3.99.04-.44,2.95-1.23,2.48-7.47-.31-4.1-1.74-.88-.33-7.62.36-1.72-2.59-3.98,3.26-3.73,8.79.37,7.12,2.83,16.34-3.38,1.67-1.13,6.29-6.78,8.16-7.68,1.26-.61,5.81.22,8.05-1.94,2.35-2.27.04-5.67.29-5.85.66-.45,3.07.85,4.31.63,1.09-.19,1.98-1.47,3.61-1.71,1.08-.16,5.6,2.12,5.6-.78,0-.28-3.33-2.29-1.29-4.82,1.32-1.64,4.09.45,3.77-1.93-6.99-3.81-3.83-1.12-6.37.89-.33.26-7.02-.01-8.38.32-.58-5.61,10.99-4.31,7.38-8.57,7.54-1.24,8.76-5.32,15.1-8.7,1.71-.91,1.92-6.66,5.19,2.5,4.6-1.49,7.76-3.6,11.7-6.16l-2.45-3.06c5.51-1.99.23-1.32-.07-2.64-.24-1.05,1.3-6.71.06-7.82-.54-.49-2.34,1.06-3.06,1.04-.66-.01-1.2-2.92-3.07-2.29-.54-1.98,1.71-.85,2.05-1.43.35-.61-.78-2.15.35-2.9.29-.19,6.43-1.68,6.78-1.68,2.97-.02,5.98,2.92,9.27,2.33l-1.24-3.68c3.59.53,4.24-.12,3.71-3.71l3.69,1.23-1.26-2.45c6.06,1.27.47-4.27,7.43-3.73l-1.26-2.43,12.31,2.47c.54-.63-.03-5.68.32-6.81.18-.59,1.41-.55,1.59-.89.38-.71-.35-1.91.54-2.71,3.94-3.56,10.32-4.87,15.05-6.97,1.53-.68,6.2-4.39,6.65-4.58,1.18-.5,4.11.99,4.78.8.59-.17.51-1.82,1.58-2.13,9.03-2.66,12.83-3.22,20.8-7.24,24.18-12.18,44.15-2.26,62.72,13.73ZM1652.9,777.14c-1.11-.25-15.9-.9-14.76,1.83,2.06,4.93,12.7,2.29,14.76-1.83ZM1913.89,983.94l-3.71-9.84c-.29-.23-5.72,3.64-6.14,4.31-.13.21,3.93,1.21,2.47,4.3l1.23-2.46c4.87,2.83-2.97,6.22,6.15,3.69ZM1915.12,1081.21c-9.88-.24-3.81,2.84-4.23,6.28-.24,1.93-1.73,4.08-3.15,5.42,5.03,1.31-1.24,9.04,6.15,5.51.5-2.1-1.8-.77-2.24-1.35-1.91-2.53,3.5-6.58,4.1-8.51.27-.88-2.38-4.92-.63-7.36ZM1821.56,1131.69c-2.19-.93-12.23-3.85-9.84,1.82,1.5,3.55,8.66,1.59,9.84-1.82ZM1773.55,1256.03h-4.93s1.24,2.42,1.24,2.42c-6.77,1.13-3.94,1.36-4.39,5.09-.12.96-1.5,2.18-1.44,2.94.22,2.76,6.52,4.04,8.27,1.24l-6.12-2.45c2.24-4.31,6.69-3.13,7.38-9.23ZM1804.33,1281.87c-2.85.58-9.82-1.67-12.02.27-.91.8-.76,2.93-1.51,3.72-1.86,1.95-4.92,3.95-6.59,5.87-.87,1,1.02,5.35-4.49,2.43l-.02,6.16-4.9-3.69c.89,6.41-5.42,7.78-4.93,13.54,6.02-.3,10.32,3.89,12.28-4.37l-2.43-.57c-.5-2.17,1.92-.76,2.36-1.29.36-.43-1.64-3.14-1.13-3.62,10.65,3.22,8.61-1.6,13.56-7.65,1.95-2.39,5.47-4.91,7.36-7.76l-2.45-1.83,4.92-1.24ZM1608.58,1321.25c-1.7-4.75-11.31-2.14-10.71,1.87.21,1.4,3.55,3.97,4.55,3.06,2.66-2.42-3.14-2.04-2.45-3.67l8.61-1.25ZM1511.33,1375.44c-5.6-2.88-7.97,7.92-7.37,8.53,4.99,5.04,6.61-5.47,9.82-2.38l-3.69-2.47,1.24-3.67ZM1528.92,1378.75c-.84-.59-1.38-3.28-2.2-3.3l-5.53,6.13c5.88-3.02,3.62,2.08,3.88,2.29,3.62,2.88,8.39-.85,12.1.18.43-4.8-5.89-3.62-8.25-5.3ZM1690.98,1381.72c-1.65-1.35-7.44-.42-9.75-1.36l4.9,3.71-3.68,2.43c3.75,3,10.71-3,8.53-4.78ZM1565.5,1390.23c-2.64.24-5.43-2.88-7.33-3.18-1.6-.25-2.53,1.7-4.15,1.66-5.28-.13-8.11-5.27-10.69,3.94l6.15-1.21-2.46,3.67c4.64-2.3,2.62.49,4.95.76,1.24.15,7.38.67,7.76.58,1.12-.24,1.13-2.4,2.06-3.06.8-.57,2.91,1.42,3.7-3.18ZM1592.58,1392.68c-6.01-.3-8.82-3.87-15.39-3.81-4.73.04-6.74.47-6.76,5.02,5.42-2.94,3.21,1.73,6.09,3.14,1.57.77,4.13-1.65,5.83-1.68,1.99-.04,3.44,2.71,4.05,2.23.19-.15-.23-1.71.2-2.1.27-.25,5.24,1.58,5.97-2.79ZM1635.6,1388.99c-.61-.6-10.25,1.74-11.83,2.05-2.16.42-3.31-1.1-6.84,1.7-3.28.07,3.12,5.74,3.51,5.89,5.59,2.15,3.16-1.27,3.67-2.27,1.47-2.89,9.48-2.88,12.79-2.47-1.07-1.17-1.08-4.69-1.3-4.9ZM1656.59,1402.49c-.16-.34-7.1.39-7.41.59-1.95,1.29.13,3.78-.21,4.21-.45.58-2.71-.75-2.21,1.36,4.8-.57,8.94,2.14,13.53,0,.42-2.4-2.88-.54-3.61-1.27-.68-.68.38-3.9-.08-4.89Z"/>
  <path d="M1087.86,639.24c.73.63,2.91-3.64,4.79-2.28.26.19-.06,2.18.63,2.18,6.13.02,13.31-2.82,20.54-1.98,6.51.75,11.25,6.21,16.51-.36,3.5-.74.45,2.37.58,2.44,3.69,1.88,3.56-2.19,3.8-2.33,2.49-1.5,2.75,2.78,4.58,3.57,3.03,1.3,10.1,1.41,14.66,3.45,3.18,1.42,7.62,5.54,9.88,6.12,13.78,3.54,28.39,13.28,40.18,22.32,1.55,1.19-.6,5.07,4.49,3.82-3.26,3.87,2.91,2.64,3.62,3.76.14.22-1.49,2.12-.61,3.61.72,1.22,9.41,8.99,11.05,9.96,8.01,4.75,13.43,10.5,20.24,17.89.87.95.77,3.27,1.71,3.93s3.1,0,3.39.25c.22.19-2.23,2.94-.02,4.33.57.36,2.58-.75,3.66-.06,1.78,1.14,4.11,6.61,8.66,7.42-6.22,2.13-.17,3.15.84,4.56.24.33,2.78,4.05,2.92,4.3.72,1.34,4.34,11.8,3.64,12.65-2.78,3.37-11.59-7.54-13.58.64,2.35.95,2.84,1.52,2.51,4.3,1.85.44.96-1.65,2.08-2.45,4.77-3.38,3.13,2.1,7.77,1.23l-1.25,2.44c7.97-.59,3.39.9,3.88,3,.6,2.63,8.01.84-.17,6.84,4.14-.33,2.26,3.2,2.73,4.34.29.69,1.99.39,2.12,1.35.04.27.31,5.24.09,5.4-.5.35-5.38.08-7.88,2.43-.83.78.89,3.91-3.22,3.76-.55,2.07,1.71.7,2.3,1.38.45.52-1.39,4.3.16,5.98l-4.92-1.21.66,9.85h-6.81c-.31,1.87,5.64,2.35,3.67,4.92-.43.56-1.89-1.83-2.43-.57-2.58,5.92-4.19,12.49-9.86,15.96l2.45,1.82c-5.02.2-2.59,7.83-6.51,10.73-4.14,3.06-2.08.05-6.46,5.22-8.2,9.69-34.82,23.41-47.04,28.07-3.08,1.17-12.31,1.12-8.91,5.23-4.56,1.59-10.23-.29-14,.07-3.44.33-8.74,3.2-11.27,3.14-4.26-.11-6.37-2.33-13.03-.19-3.45,1.11-.98,4.44-6.03,1.91l-.15,3.49c-3.38-.4-5.58,1.86-7.94,2.61-3.3,1.05.13-4.07-2.4-4.87-.75-.24-2.08.14-3.05.02l2.45,1.83c-1.09,2.7-7.3,1.78-9.84,1.84l2.45-2.44c-4.84,1.51-9.34-.39-14.18-.07-5.95.38-18.75,2.02-22.64,3.16-1.22.36-1.7,2.59-3.8,1.82l1.25-2.43c-3.04-.2-6.46-2.33-9.38-2.39-3.22-.06-5.42,2.02-8.3,2.02-2.13,0-13.08-2.76-15.84-3.45-10.72-2.68-23.08-6.56-33.45-10.98-12.63-5.39-17.92-19.01-28.6-24.46-3.28-1.67-8.42-2.55-11.14-4.27-4.94-3.12-12.33-13.32-18.32-17.96-2.05-1.59-.86-5.1-4.23-2.53,1.15-4.88-2.44-3.14-4.32-4.92-4.44-4.21-12.8-19.29-15.83-23.09-1.34-1.68-5.16-3.5-6.27-5.28-3.34-5.37-1.57-13.55,1.77-18.41-1.32-.48-6.12-.89-6.21-1.95-.06-.67,1.09-12.36,1.29-13.44.58-3.01,4.18-3.61,2.46-6.78,3.15,2.51,8.91-2.87,3.37-3.32-.61-.05-1.76,1.27-2.13.85-.91-1.04,3.79-5.83-1.23-4.94-.37-2.08,2.87-1.03,3.3-3,.13-.62-.81-2.14-.54-3.48.59-2.85,2.51-4.48.93-8.28,5.06.76,8.68.1,13.53,2.45-2.76-7.15-.22-4.84,1.71-7.46s.59-6.37,5.68-3.6c-.75-4.74.89-3.94,4.92-3.72l-3.69-1.23c.71-2.79,4.29-2.38,6.49-3.71.58-.35.69-1.51,1.96-2.33,2.05-1.31,3.72,1.92,1.4-5.02,1.34-.09,2.99.32,4.22-.07,6.48-2.08,12.22-4.18,18.84-6.63.25-.09.33-1.8,1.11-1.95,3.63-.7,5.73,2.81,7.19,2.5,2.22-.47,2.79-8.48,3.52-9.58,1.28-1.93,8.3-4.85,6.99-8.89.38-.66,3.55,5.86,4.91,1.24l-2.45-1.23c7.82,3.19,6.6-1.96,8.86-3.54.63-.44,3.6.74,5.29.48,5.49-.86,11.96-2.71,15.93-6.87,2.01-2.11,6.22-9.1,1.91-9.14,4.04-5.25,2.01-3.04-1.22-6.78,2.5.13,3.91-2.88,5.8-3.44,5.38-1.62,6.5,1.04,9.83,1.8,1,.23,2.55-1.19,2.82-.83,2.27,3.04-3.18,4.69-3.48,5.13-.25.37,1.09,1.9.92,2.13-.24.33-6.01,2.32-7.28,2.61l2.45,3.07-4.91.62c.53,3.24,11.64,1.71,12.31,1.21l-1.26-2.44h3.72c-1.55-2.29.15-5.35-.03-6.66-.12-.9-2.55-.81-2.45-1.33.87-4.57,13.7-6.39,17.89-6.78,3.94-.37,6.21,1,8.68,1.09.42.02,1.05-1.3,6.87-1.73,1.75-.13,3.21-1.63,4.17-1.83.78-.16.42,2.32.58,2.45ZM1263.66,761.39c-.26-.24-6.2-2.6-6.59-2.64-.23-.03-3.2,3.42-3.03,3.58.27.26,3.72,3.06,4.13,3.35,2.63,1.86,4.05-2.32,2.02,5.28l8.61,1.23c.38-1.96-2.35-1.2-3.18-2.44-.78-1.15.67-2.6.36-3.5-.09-.26-1.58-.16-1.81-.8-.27-.75.76-2.85-.51-4.06Z"/>
  <path d="M1608.57,1018.47l-1.14,2.3c1.7.39,3.39.9,4.8,1.99,15.79,12.32,30.74,17.36,45.65,31.94,4.97,4.86,6.61,11.36,14.71,12.96l-2.45,2.43,3.68,1.23c-3.22,1.43-4.59.34-7.37-1.22-2.2,4.98.65,3.17,1.04,4.29.41,1.18-2.86,5.66,2.05,5.47,1.36-.05,2.45-5.97,5.51-4.83-1.73,4.09,2.2,4.99,2.43,5.82,2.26,8.19,1.01,3.2,4.54,8.03.23.31-.62,1.27-.37,1.87.15.35,1.69.31,1.83.89.51,2.16-3.97,5.81.22,8.65-5.5,1.06.58,4.47-.27,7.33-.43,1.45-6.21,6.23-6.61,6.83-.83,1.25.87,3.53.72,3.66-.24.21-2.25-.42-3.3.35-5.19,3.8-5.98,2.45-9.41,4.5-2.26,1.35-9.55,10.36-10.6,11.77-3.81,5.12-7.78,3.59-8.72,4.32-.31.24,1.39,5.4-.78,7.43-1.18,1.1-13.41,8.33-15.3,9.14-1.46.62-3.12-.49-5.54.51-2.07.86-2.79,3.27-3.96,3.74-8.61,3.5-15.94-.12-24.54,5-4.03,2.4-4.67-.77-7.93-1.63-3-.79-6.83-.34-9.2-1.97-1.71-1.17.38-3.88-2.9-4.37.72-2.03,4.71-1.65,4.93-1.87s-1.29-5.68-1.45-5.93c-.38-.58-7.14-.73-10.08-2.85-2.38-1.72-3.06-4.18-4.57-5.27-7.38-5.37-12.14-2.74-12.33-14.86-.12-7.69,1.58-4.67-1.39-13.34-1.02-2.98-.83-6.32-1.18-7.58-.29-1.05-5.81-1.96-2.11-8.44,1.66-2.91,5.98-8.2,7.03-11.52.59-1.89-.04-7.8-.96-9.4-1.04-1.8-4.6,1.81-4.3-7.63s-.44-6.35-2.5-14.74c-2.5-10.19,10.68-21.67,6.7-30.44-.84-1.84-5.67,0,1.9-4.61,1.28-.3-.32,3.15,1.82,2.44.75-6.11,9.72-1.95,12.83-2.54,2.9-.54,5.18-2.97,8.92-3.17,3.38-.18,28.09,1.51,29.96,3.31Z"/>
  <path d="M813.32,1589.65c-2.64,3.31,1.51,2.09,1.22,3.06l-4.91,3.06c2.54-.52,3.68,3.72,4.42,3.78,1.62.13,4.45-2.3,6.07-2.13,1.72.18,6.19,7.44,10.43,5.74l-3.69-3.67c3.45-.18,2.86-2.71,4.3,1.21,2.21-.88.48-3.56.65-3.65,2.82-1.42,13.41-2.48,10.45,3.66,6.53-2.24,6.57-4.66,14.66-3.58,6.64.89,3.19,1.7,3.23,4.02.01.79,3.07,1.3,2.44,3.22,2.11.52.78-1.85,1.31-2.31.28-.24,7.01.85,7.28,1.1.39.37-.23,4.77,0,6.15-5.3-1.47-8.95,3.2-14.77-.03l1.24-2.42c-8.01,2.11-16.51.3-24.65-.59-7.37-.8-5.16-.26-11.46.25-2.33.19-12.9-.72-14.32-1.51-3.54-1.97-3.17-8.54-3.85-9.13-1.26-1.09-5.83,1.85-4.8-2.57l6.14,1.22-2.45-2.44,4.91-.03v-1.21s-4.91-1.23-4.91-1.23h11.08Z"/>
  <path d="M765.24,1598.31c.12.08-.21,2.15.85,2.43,2.01.52,10.26-.49,11.49,1.27.19.27-2.83,2.3,2.48,4.24.39,4.25-8.39,3.52-11.43,2.83-3.37-.76-4.28-3.31-6.43-4.66-3.28-2.05.9,3.87-2.42,2.44-4.6-1.98-7.63-5.51-12.94-4.92l4.91-2.48-1.23-2.42c3.47-.53,5.19,2.46,8.22,3.28s6.2-2.2,6.49-2.01Z"/>
  <path d="M809.25,1572.85c.54.39.32,1.92.42,1.99.63.41,3.45-2.61,5.47-2.5.69.04.55,2.14,1.23,2.37s12.86,2.15,13.55,2.11c2.98-.18,6.57-4.85,8.01,2.97-3.96,0-7.84,2.31-11.7,2.49-3.1.14-1.16-.91-.6-2.47-3.99-1.9-8.73,1.07-10.27.97-1.11-.07-2.34-1.41-3.88-1.65-4.25-.69-3.01,1.91-7.68-3.9s1.76-5,5.45-2.36Z"/>
  <path d="M1165.4,1488.69c.89-4.73,5.44-13.88,11.07-13.56l-3.68-1.83c1.04-2.51,4.16-4.03,5.34-5.58.58-.77,2.98-5.84,3.79-7.38,1-1.89.53-3.12,3.78-2.42s.42,2.94.15,3.8c-3.13,10.12-11.14,14.64-15.86,22.35-.75,1.22-.53,3.97-1.05,4.48-.64.64-2.67-.13-3.54.13-.03.16.98,1.48.82,2.84-.94,7.94-5.49,4.14-5.7,4.54-.39.74.02,3.39-1.17,5.64-1.37,2.6-13.11,16.92-16.1,14.06.86-2.98,3.16-8.16,4.93-10.5,2.75-3.63,11.11-9.36,13.28-11.9.24-.29-2-2.91,3.94-4.68Z"/>
  <path d="M942.58,683.57c-8.3-.94,5.4-2.41,5.91-2.71.62-.36.94-2.86,2.64-3.95,1.17-.75,4.73-.03,6.53-.78,1.68-.7.11-4.98,5.84.05l-2.45-4.91c3.9-1.05,5.37,6.16,3.69,7.38-.15.11-2.57-1.71-3.74-.74-1.3,1.08-.33,3.78-2.72,4.87-4.2,1.93-11.24-.84-14.93-.53-1.09.09-.69,1.25-.76,1.32,4.54.52.83.4,1.61,2.23.13.3,1.68.1,1.8.83.08.51.35,5.71.31,6-.12.86-2.03.84-2.08,1.05-.31,1.35.98,4.03-.6,5.67-.43.45-10.46,1.47-12.11,2.69.29-8.49,4.85-13.18,11.07-18.46Z"/>
  <path d="M885.95,1598.27v4.92s8.61-2.46,8.61-2.46c.57.66-1.62,3.22-1.22,3.68,2.12,2.42,2.06-5.02,6.62-1.31,6.73,5.48-7.14,6.23-10.94,5.62-1.4-.23-2.41-2.19-3.05-1.82-.11.07.28,1.7-.83,2.48-3.1,2.16-7,.93-10.26-.04-1.13-2.65,3.58-3.58,4.39-3.57,1.12.01-.33,2.99,1.75,2.35-1.27-3,2.32-3.97,2.3-4.24-.15-3.35-3.89-6.47,2.64-5.59Z"/>
  <path d="M1010.28,658.96l-3.68,2.44,4.91,1.23c-3.01,1.45-9.87-2.91-11.72-2.17-1.32.53-1.21,9.01-9.27,1.53-.98-.91-.01-2.22-.35-2.82s-2.57.55-2.04-1.44c3.93-1.47,3.15,2.69,5.4,2.48,6.33-.59,2.9-4.58,5.09-4.96l11.66,3.72Z"/>
  <path d="M1026.28,649.1c.78.87-2.97,4.79-3.1,6.01-2.19,1.25-5,1.43-7.15,2.58-1.21.65-.46,5.27-4.51.62l3.69-1.84c-2.29-1.52.35-5.48,1.49-5.9,1.46-.54,2.76,1.05,3.96,1.03.74-.01.7-2.01.95-2.08.23-.06,4.5-.6,4.66-.42Z"/>
  <path d="M1135.86,1521.94c.28.25-2.9,3.18,1.21,2.47v1.2s-7.38,3.75-7.38,3.75l1.23,2.41-3.68-1.22c1.77,4.42-.47,5.99-4.93,6.17l2.45,2.44c-11.48-2.56-1.73-3.64-.27-5.18,1.35-1.43.97-5.07,1.72-5.68s3.24.02,4.68-.81c1.78-1.02,2.38-7.88,4.96-5.54Z"/>
  <path d="M1118.55,1496.13c.25.22.86,4.9,2.53,6.08-4.34-2.88-9.12,4.81-12.31,1.23-.43-.49,6.75-9.98,9.78-7.31Z"/>
  <path d="M1322.97,1188.32c.65,1.73-4.94,1.06-2.45,3.66.57.59,5.15.19,4.91,2.47-5.19,1.33-7.72-2.9-12.3-3.7-.05-5.47,6.5-2.57,9.84-2.43Z"/>
  <path d="M893.33,1582.26c2.7,2.16-6.98,4.85-8.13,4.95-2.15.18-1.74-2.97-4.16-2.52,2.11-4.29,8.49-1.89,12.29-2.43Z"/>
  <path d="M857.65,1577.34l-.62,2.46,4.28-2.47c3.16,10.61-6.15,3.87-12.29,3.68-.15-2.38,3.58-.8,5.36-1.19,1.26-.28-.02-3.67,3.27-2.48Z"/>
  <path d="M820.7,1617.94c-6.52-1.47-12.72,2.71-12.31-6.13l12.31,6.13Z"/>
  <path d="M851.47,1617.96c1.71,2-.61,2.12-1.58,2.76-3.9,2.57-9.42,2.87-8.27-2.76,1.97.33,8.67-1.38,9.85,0Z"/>
</svg>